<svg width="811" height="330" viewBox="0 0 811 330" fill="none" xmlns="http://www.w3.org/2000/svg">
<path d="M213.333 187.334L203 214.334H200.333V187.334H193.667L186.333 201.001L179.333 187.334H172.667V214.334H169.333L159.333 187.334H153.667L148 202.001L148.667 153.334H227.333V209.667L219 187.334H213.333Z" fill="white"/>
<path d="M156.667 194L153 204.333H160.333L156.667 194Z" fill="white"/>
<path d="M150.333 214L152.333 208H160.667L163 214H150.333Z" fill="white"/>
<path d="M216 193.666L212.333 203.999H219.667L216 193.666Z" fill="white"/>
<path d="M209.667 213.666L211.667 207.666H220L222.333 213.666H209.667Z" fill="white"/>
<path d="M178.667 213.999V198.666L185 209.666H188.333L194 198.666V213.999H178.667Z" fill="white"/>
<path d="M148.333 151.667V149.334H227V151.667H148.333Z" fill="white"/>
<path d="M148.333 147.333V145H227V147.333H148.333Z" fill="white"/>
<path d="M148.333 143.333V141H227V143.333H148.333Z" fill="white"/>
<path d="M148.333 140.001V135.334H227V140.001H148.333Z" fill="white"/>
<path d="M231 214.999V140.666L257.667 200.666L231 214.999Z" fill="white"/>
<path d="M260.333 121.334L233.667 134.334L259.667 195.667L260.333 121.334Z" fill="white"/>
<path d="M180.667 117L148.333 131.667H227.667L260.395 117H180.667Z" fill="white"/>
<path d="M305.036 130.32H310.823L321.611 159.667H315.741L313.013 152.351H302.763L300.076 159.667H294.207L305.036 130.32ZM311.98 148.342L307.929 136.231L303.713 148.342H311.98ZM348.348 159.667V140.406L340.825 154.748H337.643L330.12 140.406V159.667H324.416V130.32H330.533L339.213 147.019L347.976 130.32H354.052V159.667H348.348ZM367.743 130.32H373.53L384.318 159.667H378.449L375.721 152.351H365.47L362.783 159.667H356.914L367.743 130.32ZM374.687 148.342L370.637 136.231L366.421 148.342H374.687ZM297.059 200.334V170.987H302.763V195.332H317.725V200.334H297.059ZM341.161 195.332V200.334H320.783V170.987H340.789V175.988H326.487V183.056H338.846V187.686H326.487V195.332H341.161ZM356.863 200.54C354.961 200.54 353.157 200.154 351.448 199.383C349.767 198.612 348.279 197.55 346.984 196.2C345.717 194.822 344.725 193.224 344.008 191.406C343.292 189.587 342.933 187.617 342.933 185.495C342.933 183.484 343.292 181.596 344.008 179.832C344.725 178.041 345.731 176.47 347.025 175.12C348.321 173.77 349.836 172.709 351.572 171.938C353.308 171.166 355.196 170.78 357.235 170.78C359.991 170.78 362.347 171.373 364.303 172.558C366.287 173.715 367.775 175.258 368.767 177.187L364.509 180.328C363.765 178.868 362.719 177.752 361.368 176.98C360.045 176.209 358.599 175.823 357.028 175.823C355.788 175.823 354.659 176.085 353.639 176.608C352.619 177.132 351.737 177.848 350.993 178.758C350.249 179.667 349.671 180.714 349.257 181.899C348.872 183.084 348.679 184.338 348.679 185.66C348.679 187.066 348.885 188.361 349.299 189.546C349.74 190.73 350.346 191.764 351.117 192.646C351.917 193.528 352.84 194.23 353.887 194.754C354.934 195.25 356.091 195.498 357.359 195.498C358.847 195.498 360.266 195.112 361.616 194.34C362.994 193.569 364.275 192.439 365.46 190.951V196.572C363.008 199.218 360.142 200.54 356.863 200.54ZM365.047 189.422H359.136V185.247H369.759V200.334H365.047V189.422ZM382.184 170.987H387.971L398.759 200.334H392.889L390.161 193.018H379.911L377.224 200.334H371.355L382.184 170.987ZM389.128 189.008L385.077 176.898L380.861 189.008H389.128ZM401.564 200.334V170.987H407.268V195.332H422.231V200.334H401.564ZM451.038 178.675C450.845 178.482 450.487 178.22 449.963 177.89C449.467 177.559 448.847 177.242 448.103 176.939C447.387 176.636 446.601 176.374 445.747 176.154C444.893 175.906 444.025 175.782 443.143 175.782C441.6 175.782 440.429 176.071 439.63 176.65C438.859 177.228 438.473 178.041 438.473 179.088C438.473 179.887 438.721 180.521 439.217 180.99C439.713 181.458 440.457 181.858 441.449 182.188C442.441 182.519 443.681 182.877 445.169 183.263C447.097 183.732 448.765 184.31 450.17 184.999C451.603 185.66 452.691 186.542 453.435 187.644C454.207 188.719 454.593 190.152 454.593 191.943C454.593 193.514 454.303 194.864 453.725 195.994C453.146 197.096 452.347 197.992 451.327 198.68C450.308 199.369 449.151 199.879 447.855 200.21C446.56 200.513 445.183 200.664 443.722 200.664C442.261 200.664 440.801 200.513 439.341 200.21C437.88 199.906 436.475 199.48 435.125 198.928C433.775 198.35 432.535 197.661 431.405 196.862L433.926 191.943C434.174 192.191 434.615 192.522 435.249 192.935C435.883 193.321 436.654 193.72 437.563 194.134C438.473 194.52 439.465 194.85 440.539 195.126C441.614 195.401 442.703 195.539 443.805 195.539C445.348 195.539 446.519 195.277 447.318 194.754C448.117 194.23 448.517 193.486 448.517 192.522C448.517 191.64 448.2 190.951 447.566 190.455C446.932 189.959 446.051 189.532 444.921 189.174C443.791 188.788 442.455 188.374 440.911 187.934C439.065 187.41 437.522 186.832 436.282 186.198C435.042 185.536 434.119 184.71 433.513 183.718C432.907 182.726 432.603 181.486 432.603 179.998C432.603 177.986 433.072 176.305 434.009 174.955C434.973 173.577 436.268 172.544 437.894 171.855C439.52 171.138 441.325 170.78 443.309 170.78C444.687 170.78 445.981 170.932 447.194 171.235C448.434 171.538 449.591 171.938 450.666 172.434C451.741 172.93 452.705 173.467 453.559 174.046L451.038 178.675ZM471.013 200.54C468.864 200.54 466.908 200.127 465.144 199.3C463.408 198.474 461.907 197.358 460.639 195.952C459.399 194.52 458.435 192.921 457.745 191.158C457.057 189.366 456.712 187.534 456.712 185.66C456.712 183.704 457.071 181.844 457.787 180.08C458.531 178.289 459.537 176.705 460.804 175.327C462.099 173.922 463.615 172.819 465.351 172.02C467.115 171.194 469.043 170.78 471.137 170.78C473.259 170.78 475.188 171.207 476.924 172.062C478.688 172.916 480.189 174.059 481.429 175.492C482.669 176.925 483.634 178.523 484.323 180.287C485.012 182.05 485.356 183.869 485.356 185.743C485.356 187.672 484.998 189.532 484.281 191.323C483.565 193.086 482.559 194.671 481.264 196.076C479.997 197.454 478.481 198.542 476.717 199.342C474.981 200.141 473.08 200.54 471.013 200.54ZM462.499 185.66C462.499 186.928 462.692 188.154 463.077 189.339C463.463 190.524 464.015 191.585 464.731 192.522C465.475 193.431 466.371 194.161 467.417 194.712C468.492 195.236 469.705 195.498 471.055 195.498C472.433 195.498 473.659 195.222 474.733 194.671C475.808 194.092 476.704 193.334 477.42 192.398C478.137 191.433 478.674 190.372 479.032 189.215C479.418 188.03 479.611 186.845 479.611 185.66C479.611 184.393 479.404 183.18 478.991 182.023C478.605 180.838 478.04 179.791 477.296 178.882C476.58 177.945 475.684 177.214 474.609 176.691C473.563 176.14 472.377 175.864 471.055 175.864C469.649 175.864 468.409 176.154 467.335 176.732C466.288 177.283 465.406 178.027 464.689 178.964C463.973 179.901 463.422 180.948 463.036 182.106C462.678 183.263 462.499 184.448 462.499 185.66ZM489.319 200.334V170.987H495.023V195.332H509.985V200.334H489.319ZM524.717 200.54C522.375 200.54 520.377 200.154 518.724 199.383C517.099 198.584 515.776 197.496 514.756 196.118C513.764 194.74 513.034 193.183 512.565 191.447C512.097 189.684 511.863 187.851 511.863 185.95V170.987H517.567V185.95C517.567 187.162 517.677 188.347 517.897 189.504C518.145 190.634 518.545 191.654 519.096 192.563C519.647 193.472 520.377 194.189 521.287 194.712C522.196 195.236 523.326 195.498 524.676 195.498C526.054 195.498 527.197 195.236 528.107 194.712C529.044 194.161 529.774 193.431 530.297 192.522C530.849 191.612 531.248 190.593 531.496 189.463C531.744 188.306 531.868 187.134 531.868 185.95V170.987H537.531V185.95C537.531 187.961 537.283 189.849 536.787 191.612C536.319 193.376 535.561 194.933 534.513 196.283C533.494 197.606 532.171 198.653 530.545 199.424C528.92 200.168 526.977 200.54 524.717 200.54ZM564.811 175.988H555.428V200.334H549.765V175.988H540.383V170.987H564.811V175.988ZM568.041 200.334V170.987H573.745V200.334H568.041ZM591.978 200.54C589.829 200.54 587.873 200.127 586.109 199.3C584.373 198.474 582.871 197.358 581.603 195.952C580.363 194.52 579.399 192.921 578.71 191.158C578.021 189.366 577.677 187.534 577.677 185.66C577.677 183.704 578.035 181.844 578.751 180.08C579.495 178.289 580.501 176.705 581.769 175.327C583.064 173.922 584.579 172.819 586.315 172.02C588.079 171.194 590.008 170.78 592.102 170.78C594.224 170.78 596.153 171.207 597.889 172.062C599.653 172.916 601.154 174.059 602.394 175.492C603.634 176.925 604.599 178.523 605.287 180.287C605.977 182.05 606.321 183.869 606.321 185.743C606.321 187.672 605.963 189.532 605.246 191.323C604.53 193.086 603.524 194.671 602.229 196.076C600.961 197.454 599.446 198.542 597.682 199.342C595.946 200.141 594.045 200.54 591.978 200.54ZM583.463 185.66C583.463 186.928 583.657 188.154 584.042 189.339C584.428 190.524 584.979 191.585 585.695 192.522C586.439 193.431 587.335 194.161 588.382 194.712C589.457 195.236 590.669 195.498 592.019 195.498C593.397 195.498 594.623 195.222 595.698 194.671C596.773 194.092 597.669 193.334 598.385 192.398C599.101 191.433 599.639 190.372 599.997 189.215C600.383 188.03 600.575 186.845 600.575 185.66C600.575 184.393 600.369 183.18 599.955 182.023C599.57 180.838 599.005 179.791 598.261 178.882C597.545 177.945 596.649 177.214 595.574 176.691C594.527 176.14 593.342 175.864 592.019 175.864C590.614 175.864 589.374 176.154 588.299 176.732C587.253 177.283 586.371 178.027 585.654 178.964C584.938 179.901 584.387 180.948 584.001 182.106C583.643 183.263 583.463 184.448 583.463 185.66ZM615.987 181.486V200.334H610.283V170.987H614.829L629.999 190.331V171.028H635.703V200.334H630.949L615.987 181.486ZM658.879 178.675C658.685 178.482 658.327 178.22 657.804 177.89C657.308 177.559 656.688 177.242 655.944 176.939C655.227 176.636 654.442 176.374 653.588 176.154C652.733 175.906 651.865 175.782 650.984 175.782C649.441 175.782 648.269 176.071 647.471 176.65C646.699 177.228 646.313 178.041 646.313 179.088C646.313 179.887 646.561 180.521 647.057 180.99C647.553 181.458 648.297 181.858 649.289 182.188C650.281 182.519 651.521 182.877 653.009 183.263C654.938 183.732 656.605 184.31 658.011 184.999C659.443 185.66 660.532 186.542 661.276 187.644C662.047 188.719 662.433 190.152 662.433 191.943C662.433 193.514 662.144 194.864 661.565 195.994C660.987 197.096 660.187 197.992 659.168 198.68C658.148 199.369 656.991 199.879 655.696 200.21C654.401 200.513 653.023 200.664 651.563 200.664C650.102 200.664 648.641 200.513 647.181 200.21C645.721 199.906 644.315 199.48 642.965 198.928C641.615 198.35 640.375 197.661 639.245 196.862L641.767 191.943C642.015 192.191 642.455 192.522 643.089 192.935C643.723 193.321 644.495 193.72 645.404 194.134C646.313 194.52 647.305 194.85 648.38 195.126C649.455 195.401 650.543 195.539 651.645 195.539C653.188 195.539 654.359 195.277 655.159 194.754C655.957 194.23 656.357 193.486 656.357 192.522C656.357 191.64 656.04 190.951 655.407 190.455C654.773 189.959 653.891 189.532 652.761 189.174C651.631 188.788 650.295 188.374 648.752 187.934C646.905 187.41 645.363 186.832 644.123 186.198C642.883 185.536 641.959 184.71 641.353 183.718C640.747 182.726 640.444 181.486 640.444 179.998C640.444 177.986 640.912 176.305 641.849 174.955C642.813 173.577 644.109 172.544 645.735 171.855C647.36 171.138 649.165 170.78 651.149 170.78C652.527 170.78 653.822 170.932 655.035 171.235C656.275 171.538 657.432 171.938 658.507 172.434C659.581 172.93 660.545 173.467 661.4 174.046L658.879 178.675Z" fill="white"/>
<path d="M659.616 123.666L658.232 121.33H657.2V123.666H656.64V118.074H658.32C658.944 118.074 659.416 118.224 659.736 118.522C660.061 118.821 660.224 119.213 660.224 119.698C660.224 120.104 660.107 120.45 659.872 120.738C659.643 121.021 659.301 121.205 658.848 121.29L660.288 123.666H659.616ZM657.2 120.874H658.328C658.765 120.874 659.093 120.768 659.312 120.554C659.536 120.341 659.648 120.056 659.648 119.698C659.648 119.33 659.541 119.048 659.328 118.85C659.115 118.648 658.779 118.546 658.32 118.546H657.2V120.874Z" fill="white"/>
<path d="M664 120.877C664 124.123 661.369 126.754 658.123 126.754C654.877 126.754 652.246 124.123 652.246 120.877C652.246 117.631 654.877 115 658.123 115C661.369 115 664 117.631 664 120.877ZM652.625 120.877C652.625 123.913 655.087 126.375 658.123 126.375C661.159 126.375 663.621 123.913 663.621 120.877C663.621 117.841 661.159 115.379 658.123 115.379C655.087 115.379 652.625 117.841 652.625 120.877Z" fill="white"/>
</svg>
